<svg width="83" height="77" viewBox="0 0 83 77" fill="none" xmlns="http://www.w3.org/2000/svg">
<g filter="url(#filter0_f_405_469)">
<circle cx="41.5" cy="41.5" r="21.5" fill="#FF9F24" fill-opacity="0.24"/>
</g>
<path fill-rule="evenodd" clip-rule="evenodd" d="M44 51H48.8936C50.0602 51 51.0107 50.071 50.9999 48.9309V39.1763C50.9999 38.5746 50.7299 37.9939 50.2546 37.6033L42.8663 31.4909C42.0778 30.8364 40.9221 30.8364 40.1336 31.4909L32.7453 37.6033C32.27 37.9939 32 38.564 32 39.1763V48.9309C32 50.071 32.9505 51 34.1171 51H39V45.5C39 44.1193 40.1193 43 41.5 43C42.8807 43 44 44.1193 44 45.5V51Z" fill="#FF9F24"/>
<defs>
<filter id="filter0_f_405_469" x="0" y="0" width="83" height="83" filterUnits="userSpaceOnUse" color-interpolation-filters="sRGB">
<feFlood flood-opacity="0" result="BackgroundImageFix"/>
<feBlend mode="normal" in="SourceGraphic" in2="BackgroundImageFix" result="shape"/>
<feGaussianBlur stdDeviation="10" result="effect1_foregroundBlur_405_469"/>
</filter>
</defs>
</svg>
