<svg width="24" height="24" viewBox="0 0 24 24" fill="none" xmlns="http://www.w3.org/2000/svg">
<path d="M19.3845 5.48878C19.1245 5.17878 18.6945 5.08878 18.3145 5.20878C17.5045 5.47878 16.5845 5.40878 15.7845 4.95878C14.9845 4.49878 14.4645 3.73878 14.2845 2.90878C14.1945 2.50878 13.8945 2.17878 13.4945 2.11878C12.4945 1.95878 11.4545 1.95878 10.4345 2.12878C10.0345 2.19878 9.74454 2.51878 9.65454 2.91878C9.47454 3.75878 8.96454 4.51878 8.16454 4.98878C7.36454 5.45878 6.44454 5.51878 5.63454 5.25878C5.25454 5.13878 4.82454 5.22878 4.56454 5.53878C3.91454 6.34878 3.40454 7.24878 3.05454 8.19878C2.91454 8.57878 3.05454 8.99878 3.35454 9.25878C3.98454 9.83878 4.38454 10.6688 4.39454 11.5888C4.39454 12.5188 3.99454 13.3388 3.36454 13.9188C3.06454 14.1888 2.93454 14.6088 3.07454 14.9788C3.25454 15.4488 3.47454 15.9188 3.73454 16.3688C3.99454 16.8188 4.29454 17.2388 4.61454 17.6288C4.87454 17.9388 5.30454 18.0288 5.68454 17.9088C6.49454 17.6388 7.41454 17.7088 8.21454 18.1588C9.01454 18.6188 9.53454 19.3788 9.71454 20.2088C9.80454 20.5988 10.0945 20.9288 10.4945 20.9888C11.5045 21.1488 12.5345 21.1488 13.5545 20.9788C13.9545 20.9088 14.2445 20.5888 14.3345 20.1888C14.5145 19.3488 15.0245 18.5888 15.8245 18.1188C16.6245 17.6488 17.5445 17.5888 18.3545 17.8488C18.7445 17.9688 19.1745 17.8788 19.4245 17.5588C20.0745 16.7488 20.5845 15.8488 20.9445 14.8988C21.0845 14.5188 20.9445 14.0988 20.6445 13.8388C20.0045 13.2688 19.6045 12.4388 19.5945 11.5188C19.5945 10.5888 19.9945 9.76878 20.6245 9.18878C20.9245 8.91878 21.0545 8.49878 20.9145 8.12878C20.7345 7.65878 20.5145 7.18878 20.2545 6.73878C20.0045 6.28878 19.7045 5.87878 19.3845 5.48878Z" stroke="#8F8F8F" stroke-width="1.5" stroke-miterlimit="10" stroke-linecap="round" stroke-linejoin="round"/>
<path d="M12.0046 14.5188C13.6393 14.5188 14.9646 13.1935 14.9646 11.5588C14.9646 9.92399 13.6393 8.59875 12.0046 8.59875C10.3698 8.59875 9.04456 9.92399 9.04456 11.5588C9.04456 13.1935 10.3698 14.5188 12.0046 14.5188Z" stroke="#8F8F8F" stroke-width="1.5" stroke-miterlimit="10" stroke-linecap="round" stroke-linejoin="round"/>
</svg>
